<svg width="177" height="127" viewBox="0 0 177 127" fill="none" xmlns="http://www.w3.org/2000/svg">
<path d="M2.34063 118.309C9.76359 110.544 15.5959 103.309 19.8376 96.6032C24.0793 89.8973 26.2001 84.4267 26.2001 80.1914C26.2001 77.7208 25.3165 75.4267 23.5491 73.3091C22.1352 71.1914 19.8376 68.8973 16.6563 66.4267C11.7077 62.5444 7.81949 58.4855 4.99169 54.2502C2.1639 50.0149 0.75 44.3679 0.75 37.3091C0.75 26.3679 4.10799 17.5444 10.824 10.8385C17.54 3.77966 26.0234 0.250244 36.2742 0.250244C47.2319 0.250244 56.0687 3.77966 62.7847 10.8385C69.8542 17.5444 73.389 26.3679 73.389 37.3091C73.389 51.0738 67.5566 66.2503 55.892 82.8385C44.5808 99.0738 29.3814 113.544 10.2938 126.25L2.34063 118.309ZM105.202 118.309C112.625 110.544 118.457 103.309 122.699 96.6032C126.94 89.8973 129.061 84.4267 129.061 80.1914C129.061 77.7208 128.177 75.4267 126.41 73.3091C124.996 71.1914 122.699 68.8973 119.517 66.4267C114.569 62.5444 110.681 58.4855 107.853 54.2502C105.025 50.0149 103.611 44.3679 103.611 37.3091C103.611 26.3679 106.969 17.5444 113.685 10.8385C120.401 3.77966 128.884 0.250244 139.135 0.250244C150.093 0.250244 158.93 3.77966 165.646 10.8385C172.715 17.5444 176.25 26.3679 176.25 37.3091C176.25 51.0738 170.418 66.2503 158.753 82.8385C147.442 99.0738 132.242 113.544 113.155 126.25L105.202 118.309Z" fill="#E2EEFF"/>
</svg>
